<?xml version="1.0" standalone="no"?><!DOCTYPE svg PUBLIC "-//W3C//DTD SVG 1.1//EN" "http://www.w3.org/Graphics/SVG/1.1/DTD/svg11.dtd"><svg t="1620893564623" class="icon" viewBox="0 0 1024 1024" version="1.1" xmlns="http://www.w3.org/2000/svg" p-id="8310" xmlns:xlink="http://www.w3.org/1999/xlink" width="16" height="16"><defs><style type="text/css"></style></defs><path d="M975.152 235.059c-16.726-24.626-44.336-39.328-73.856-39.328l-699.771-0.067-4.977-27.662-6.844-48.766c-2.203-15.681-15.735-27.505-31.476-27.505h-92.787c-17.529 0-31.79 14.346-31.79 31.98 0 17.632 14.26 31.978 31.79 31.978h65.169l3.073 21.884c0.057 0.407 0.123 0.81 0.195 1.211l9.082 50.48c0.139 2.729 0.623 5.423 1.445 8.025l13.45 74.763c0.085 0.47 0.18 0.944 0.303 1.497l68.371 298.918c0.146 0.639 0.31 1.267 0.499 1.916 14.931 50.595 42.657 84.266 78.245 96.449-47.492 12.951-82.541 56.805-82.541 108.774 0 62.123 50.079 112.666 111.635 112.666 61.554 0 111.633-50.541 111.633-112.666 0-46.495-28.053-86.498-67.971-103.685h316.321c-39.919 17.186-67.972 57.19-67.972 103.685 0 62.123 50.078 112.666 111.633 112.666 61.556 0 111.635-50.541 111.635-112.666 0-51.938-35.007-95.773-82.46-108.752 33.418-11.29 61.623-41.587 85.611-91.781 0.157-0.336 0.313-0.673 0.431-0.953l130.27-298.882c0.205-0.47 0.397-0.944 0.576-1.413 10.805-28.348 7.555-58.515-8.918-82.764zM689.952 819.605c0-26.855 21.556-48.705 48.053-48.705 26.498 0 48.055 21.847 48.055 48.705 0 13.010-5.023 25.251-14.145 34.47-9.086 9.18-21.131 14.236-33.91 14.236-26.497-0.001-48.053-21.851-48.053-48.706zM334.365 770.9c26.498 0 48.055 21.847 48.055 48.705s-21.557 48.705-48.055 48.705-48.055-21.85-48.055-48.705 21.557-48.705 48.055-48.705zM924.927 294.33l-129.697 297.58c-19.395 40.41-38.823 60.052-59.396 60.052h-399.476c-11.807 0-33.739-7.132-48.106-54.873l-67.967-297.159-7.25-40.295 43.614 0.054h644.646c8.379 0 16.566 4.389 21.365 11.454 4.545 6.691 5.327 14.705 2.266 23.187zM752.228 311.729c-5.999 0-11.719 1.902-16.546 5.498l-252.523 188.208-75.837-89.292c-5.293-6.233-13.005-9.807-21.155-9.807-6.658 0-13.105 2.411-18.155 6.787-11.563 10.030-12.9 27.69-2.983 39.369l92.689 109.138c5.292 6.233 13.005 9.807 21.158 9.807 6.004 0 11.728-1.902 16.548-5.498l273.372-203.746c12.272-9.146 14.902-26.661 5.865-39.043-5.221-7.151-13.609-11.421-22.434-11.421z" p-id="8311"></path></svg>