<?xml version="1.0" standalone="no"?><!DOCTYPE svg PUBLIC "-//W3C//DTD SVG 1.1//EN" "http://www.w3.org/Graphics/SVG/1.1/DTD/svg11.dtd"><svg t="1621076937170" class="icon" viewBox="0 0 1349 1024" version="1.1" xmlns="http://www.w3.org/2000/svg" p-id="1226" xmlns:xlink="http://www.w3.org/1999/xlink" width="21.078125" height="16"><defs><style type="text/css"></style></defs><path d="M124.470738 797.084356C44.453835 716.680899 0 611.15136 0 499.823495c0-104.756428 43.680725-201.3952 129.495954-287.596983 80.016903-80.403458 180.90778-122.924517 291.462534-122.924517h459.227442V40.209499C880.18593 15.469973 902.21957 0.00777 922.320434 0.00777a37.031977 37.031977 0 0 1 21.26053 6.184881l184.000221 91.227c13.142873 8.117657 20.100864 19.714309 20.100864 32.470628s-7.344547 24.35297-19.714309 32.084072L939.328858 264.024893a32.122728 32.122728 0 0 1-17.008424 4.638661c-22.420195 0-42.521059-22.80675-42.521059-47.546275V162.747461H416.706382c-175.496009 0-341.714696 163.899356-341.714695 336.689479 0 83.882454 40.201729 172.017013 110.554754 241.210374l4.638661 4.638661-58.369818 59.142928zM427.14337 1023.992192a37.031977 37.031977 0 0 1-21.26053-6.184882l-184.000221-91.227c-13.142873-8.117657-20.100864-19.714309-20.100864-32.470627s7.344547-24.35297 19.714309-32.084072l189.025437-102.050543a32.431972 32.431972 0 0 1 17.008424-5.025216c22.420195 0 42.521059 22.80675 42.521059 47.546276v58.369817h463.092993c175.496009 0 341.714696-163.512801 341.714695-336.689479 0-78.857237-36.336178-162.739691-99.731212-230.000276l-5.411771-5.798326 6.957992-4.252106 65.714364-39.428619 3.478996 4.252106a413.88453 413.88453 0 0 1 103.983318 275.613776c0 104.756428-43.680725 201.781755-129.495954 287.596984-80.016903 80.403458-180.90778 122.924517-291.462534 122.924517H469.277874v49.479051c0 23.966415-22.03364 39.428619-42.134504 39.428619z" p-id="1227" fill="#ffffff"></path><path d="M660.236086 732.916212v-291.462534a281.760002 281.760002 0 0 1-93.932886 51.798381l-8.504211 2.705886v-85.815229l4.638661-1.546221c20.100864-6.571436 42.134504-19.327754 65.714364-37.495843s39.428619-39.428619 47.932831-63.395034l1.54622-4.252106h75.378242v429.076145h-92.773221z" p-id="1228" fill="#ffffff"></path></svg>