<?xml version="1.0" standalone="no"?><!DOCTYPE svg PUBLIC "-//W3C//DTD SVG 1.1//EN" "http://www.w3.org/Graphics/SVG/1.1/DTD/svg11.dtd"><svg t="1620396546376" class="icon" viewBox="0 0 1303 1024" version="1.1" xmlns="http://www.w3.org/2000/svg" p-id="1720" xmlns:xlink="http://www.w3.org/1999/xlink" width="20.359375" height="16"><defs><style type="text/css"></style></defs><path d="M1182.906182 227.514182a408.203636 408.203636 0 0 0-288.488727-117.853091h-428.218182V28.858182c0-25.786182-17.873455-35.467636-39.842909-21.410909L229.189818 132.840727c-21.969455 13.963636-21.690182 36.584727 0.465455 50.176l196.235636 119.808c22.155636 13.591273 40.401455 3.630545 40.401455-22.155636v-80.430546h428.218181c174.08 0 315.857455 139.822545 315.857455 311.668364 0 28.392727-3.816727 56.506182-11.450182 83.595636a45.335273 45.335273 0 0 0 44.311273 57.530182 45.893818 45.893818 0 0 0 44.311273-33.233454 396.939636 396.939636 0 0 0-104.634182-392.471273z m-75.962182 613.469091L910.801455 720.989091c-22.248727-13.591273-40.401455-3.630545-40.401455 22.155636v80.430546H408.110545C233.844364 823.668364 92.066909 683.845818 92.066909 512c0-60.229818 17.501091-118.597818 50.455273-168.96a44.962909 44.962909 0 0 0-13.684364-62.743273 46.359273 46.359273 0 0 0-63.581091 13.498182A397.032727 397.032727 0 0 0 0 512c0 107.52 42.449455 208.523636 119.528727 284.485818a408.203636 408.203636 0 0 0 288.488728 117.853091H870.4v80.802909c0 25.786182 17.966545 35.467636 39.936 21.410909l197.073455-125.486545c21.969455-13.963636 21.783273-36.584727-0.465455-50.176z" p-id="1721" fill="#ffffff"></path></svg>