<?xml version="1.0" standalone="no"?><!DOCTYPE svg PUBLIC "-//W3C//DTD SVG 1.1//EN" "http://www.w3.org/Graphics/SVG/1.1/DTD/svg11.dtd"><svg t="1620893501393" class="icon" viewBox="0 0 1024 1024" version="1.1" xmlns="http://www.w3.org/2000/svg" p-id="5708" xmlns:xlink="http://www.w3.org/1999/xlink" width="16" height="16"><defs><style type="text/css"></style></defs><path d="M700.652 793.129H289.879c-57.866 0-106.644-20.541-141.046-59.402-30.049-33.94-46.597-79.268-46.597-127.647 0-86.554 56.202-174.162 163.728-177.48 4.413-47.477 24.186-90.347 58.014-125.235 44.017-45.399 109.46-72.5 175.074-72.5 89.472 0 164.014 47.545 202.946 128.257a254.454 254.454 0 0 1 18.176-0.666c134.502 0 204.872 108.268 204.872 215.21 0 57.313-19.676 110.683-55.399 150.287-40.842 45.255-99.276 69.176-168.995 69.176z m-428.35-312.371c-80.952 0-117.821 64.962-117.821 125.327 0 35.087 12.2 68.987 33.47 93.01 24.206 27.336 59.453 41.784 101.928 41.784h410.773c54.517 0 99.537-17.955 130.19-51.927 27.05-29.982 41.949-70.927 41.949-115.287 0-78.484-47.764-162.964-152.627-162.964-9.861 0-20.178 0.773-30.659 2.304l-20.526 2.99-7.567-19.308c-28.298-72.181-87.48-113.577-162.37-113.577-51.764 0-103.19 21.166-137.565 56.622-30.239 31.186-45.501 70.969-44.14 115.037l0.917 29.716-29.588-2.908a168.899 168.899 0 0 0-16.364-0.82z" p-id="5709"></path></svg>