<?xml version="1.0" standalone="no"?><!DOCTYPE svg PUBLIC "-//W3C//DTD SVG 1.1//EN" "http://www.w3.org/Graphics/SVG/1.1/DTD/svg11.dtd"><svg t="1619964819281" class="icon" viewBox="0 0 1126 1024" version="1.1" xmlns="http://www.w3.org/2000/svg" p-id="7319" xmlns:xlink="http://www.w3.org/1999/xlink" width="17.59375" height="16"><defs><style type="text/css"></style></defs><path d="M1104.0768 142.336l0.512 11.4688V731.136c0 70.144-48.9472 127.8976-111.616 133.7344l-10.5472 0.6144h-100.6592c-19.6608 0.2048-35.6352-17.1008-35.84-38.6048v-0.1024c0-18.7392 12.288-34.816 29.3888-38.1952l6.4512-0.6144h100.6592c25.6-0.3072 46.8992-21.2992 50.0736-49.152l0.512-7.68V153.6c0.2048-28.0576-18.432-52.224-43.8272-56.32L982.4256 97.0752H225.28c-25.6 0.2048-47.0016 21.1968-50.176 49.152l-0.4096 7.68V731.136c0 28.9792 19.1488 52.5312 43.7248 56.32l6.8608 0.512h410.0096c7.68 0 15.36 2.6624 21.504 7.68l4.3008 4.096 155.648 115.3024a41.0624 41.0624 0 0 1-1.536 54.6816 33.792 33.792 0 0 1-45.056 3.584l-4.9152-4.5056-145.1008-103.424H225.28c-63.2832 0-116.1216-53.248-121.6512-122.6752l-0.512-11.5712V153.6c0-70.0416 48.8448-127.6928 111.616-133.7344L225.28 19.456h757.248c64 0 116.3264 54.1696 121.5488 122.88zM356.0448 261.5296H677.888c27.9552 0 41.984 15.1552 41.984 45.568 0 30.3104-14.0288 45.568-41.984 45.568H356.0448c-27.9552 0-41.984-15.2576-41.984-45.568 0-30.3104 14.0288-45.568 41.984-45.568z m0 236.7488h492.544c27.9552 0 41.984 15.1552 41.984 45.4656 0 30.3104-14.0288 45.568-41.984 45.568h-492.544c-27.9552 0-41.984-15.1552-41.984-45.4656 0-30.4128 14.0288-45.568 41.984-45.568z" fill="#333333" p-id="7320"></path></svg>