<?xml version="1.0" standalone="no"?><!DOCTYPE svg PUBLIC "-//W3C//DTD SVG 1.1//EN" "http://www.w3.org/Graphics/SVG/1.1/DTD/svg11.dtd"><svg t="1620395727156" class="icon" viewBox="0 0 1024 1024" version="1.1" xmlns="http://www.w3.org/2000/svg" p-id="12296" xmlns:xlink="http://www.w3.org/1999/xlink" width="16" height="16"><defs><style type="text/css"></style></defs><path d="M401.768945 432.69377m-65.266469 0a63.78 63.78 0 1 0 130.532939 0 63.78 63.78 0 1 0-130.532939 0Z" p-id="12297" fill="#ffffff"></path><path d="M650.657478 432.69377m-65.265446 0a63.779 63.779 0 1 0 130.530892 0 63.779 63.779 0 1 0-130.530892 0Z" p-id="12298" fill="#ffffff"></path><path d="M908.704602 265.363763c-0.229221 0.027629-0.457418 0.053212-0.686638 0.081864-2.620687-14.295588-15.133675-25.133424-30.18651-25.133424-16.954137 0-30.699186 13.745049-30.699186 30.699186 0 2.14792 0.222057 4.242627 0.641613 6.265704 0.005117 0.357134 0.019443 0.711198 0.019443 1.069355l0 325.410348c0 63.044872-51.291177 114.336048-114.335025 114.336048L523.293719 718.092845l-78.400604 61.398372-89.378633 69.994144 0-131.392516-34.955116 0c-9.101285 0-17.951861-1.075495-26.443255-3.092431-50.337455-11.963473-87.892793-57.297984-87.892793-111.243617L206.223317 278.346449c0-47.924499 30.242791-91.122347 75.254961-107.491153l-0.033769-0.091074c10.810207-4.677533 18.376533-15.434527 18.376533-27.961842 0-16.821107-13.636578-30.457686-30.457686-30.457686-3.024893 0-5.944386 0.447185-8.702196 1.2689l-0.166799-0.458441c-33.56956 12.208043-62.313208 34.093493-83.122139 63.289442-21.292955 29.874401-32.547277 65.11195-32.547277 101.902878l0 325.410348c0 87.914282 64.891939 160.953785 149.291165 173.746136l0 198.052728 250.359025-196.064444 188.984189 0c96.898911 0 175.733397-78.834486 175.733397-175.73442l0-325.411371C909.192719 273.990235 909.024897 269.660626 908.704602 265.363763z" p-id="12299" fill="#ffffff"></path></svg>