<?xml version="1.0" standalone="no"?><!DOCTYPE svg PUBLIC "-//W3C//DTD SVG 1.1//EN" "http://www.w3.org/Graphics/SVG/1.1/DTD/svg11.dtd"><svg t="1620130432724" class="icon" viewBox="0 0 1024 1024" version="1.1" xmlns="http://www.w3.org/2000/svg" p-id="6300" xmlns:xlink="http://www.w3.org/1999/xlink" width="16" height="16"><defs><style type="text/css"></style></defs><path d="M511.659 901.12c-18.091 0-34.816-7.85-46.422-21.845l-39.594-47.787c-5.12-3.413-11.264-5.461-17.75-5.461H177.152c-43.69 0-79.53-35.499-79.53-79.531V244.053c0-43.69 35.498-79.53 79.53-79.53h673.792c43.69 0 79.53 35.498 79.53 79.53v502.443c0 43.69-35.498 79.53-79.53 79.53H612.011c-6.144 0-12.288 1.707-17.408 5.12l-35.158 46.422c-11.264 14.677-27.989 23.21-46.421 23.552h-1.365zM177.152 212.65c-17.408 0-31.744 14.337-31.744 31.745v502.442c0 17.408 14.336 31.744 31.744 31.744h231.083c17.749 0 34.816 5.803 48.81 16.726l2.048 1.706 43.008 52.224c3.414 4.096 7.51 4.438 9.558 4.438s6.485-0.683 9.557-4.779l39.253-51.541 2.39-2.048c13.994-10.923 31.402-16.726 48.81-16.726h238.934c17.408 0 31.744-14.336 31.744-31.744V244.053c0-17.408-14.336-31.744-31.744-31.744H177.152z" p-id="6301" fill="#ffffff"></path><path d="M275.115 491.179a34.475 34.475 0 1 0 68.949 0 34.475 34.475 0 1 0-68.95 0zM485.035 491.179a34.475 34.475 0 1 0 68.949 0 34.475 34.475 0 1 0-68.95 0zM694.613 491.179a34.475 34.475 0 1 0 68.95 0 34.475 34.475 0 1 0-68.95 0z" p-id="6302" fill="#ffffff"></path></svg>