<?xml version="1.0" standalone="no"?><!DOCTYPE svg PUBLIC "-//W3C//DTD SVG 1.1//EN" "http://www.w3.org/Graphics/SVG/1.1/DTD/svg11.dtd"><svg t="1621078706545" class="icon" viewBox="0 0 1024 1024" version="1.1" xmlns="http://www.w3.org/2000/svg" p-id="5432" xmlns:xlink="http://www.w3.org/1999/xlink" width="16" height="16"><defs><style type="text/css"></style></defs><path d="M517.240625 52.2584375c-94.0303125 0-170.3465625 74.544375-173.5940625 168.13125H124.4403125c-24.3553125 0-44.2828125 19.7803125-44.2828125 44.28375 0 24.35625 19.7803125 44.2846875 44.28375 44.2846875h48.8596875v495.39c0 92.99625 63.0309375 169.0171875 140.971875 169.0171875h397.078125c77.79375 0 140.971875-75.5775 140.971875-169.0171875V309.2534375h44.28375c24.35625 0 44.28375-19.78125 44.28375-44.2846875 0-24.35625-19.7803125-44.28375-44.28375-44.28375H690.5384375C687.7334375 126.80375 611.27 52.259375 517.240625 52.259375z m-90.6346875 168.13125c3.2475-47.97375 42.365625-85.171875 90.781875-85.171875s87.534375 37.3453125 90.339375 85.171875H426.6059375z m-112.48125 670.164375c-27.60375 0-58.0125-35.4271875-58.0125-86.2059375V309.2534375h513.1040625V804.790625c0 50.6315625-30.40875 86.206875-58.0125 86.206875H314.1246875v-0.4434375z m0 0" p-id="5433"></path><path d="M373.6128125 784.1253125c20.221875 0 36.9028125-20.2228125 36.9028125-45.6121875V478.270625c0-25.389375-16.5328125-45.613125-36.9028125-45.613125-20.22375 0-36.90375 20.22375-36.90375 45.613125v260.2425c0 25.24125 16.2375 45.6121875 36.90375 45.6121875z m133.59 0c20.2228125 0 36.9028125-20.2228125 36.9028125-45.6121875V478.270625c0-25.389375-16.5328125-45.613125-36.9028125-45.613125-20.2228125 0-36.90375 20.22375-36.90375 45.613125v260.2425c0 25.24125 16.6809375 45.6121875 36.90375 45.6121875z m140.5275 0c20.2228125 0 36.90375-20.2228125 36.90375-45.6121875V478.270625c0-25.389375-16.5328125-45.613125-36.90375-45.613125-20.2228125 0-36.9028125 20.22375-36.9028125 45.613125v260.2425c0 25.24125 16.089375 45.6121875 36.9028125 45.6121875z m0 0" p-id="5434"></path></svg>