<?xml version="1.0" standalone="no"?><!DOCTYPE svg PUBLIC "-//W3C//DTD SVG 1.1//EN" "http://www.w3.org/Graphics/SVG/1.1/DTD/svg11.dtd"><svg t="1620397449021" class="icon" viewBox="0 0 1194 1024" version="1.1" xmlns="http://www.w3.org/2000/svg" p-id="12300" xmlns:xlink="http://www.w3.org/1999/xlink" width="18.65625" height="16"><defs><style type="text/css"></style></defs><path d="M0 887.466667h1126.4V1024H0v-136.533333z m872.96-392.789334L624.810667 727.722667c-15.36 14.08-37.205333 23.210667-61.610667 23.210666a89.6 89.6 0 0 1-61.354667-23.296L253.098667 494.762667a65.28 65.28 0 0 1-21.248-46.677334c0-38.656 37.12-69.973333 82.858666-69.973333l1.877334 0.085333v-0.341333h163.84V206.421333c0-38.570667 37.034667-69.888 82.773333-69.888s82.773333 31.232 82.773333 69.973334v171.349333h160.768v0.512l4.949334-0.170667c45.738667 0 82.773333 31.317333 82.773333 69.973334 0 17.92-8.277333 34.133333-21.418667 46.506666h-0.085333zM430.677333 0h265.045334v409.6H430.677333V0z" fill="#ffffff" p-id="12301"></path></svg>