<?xml version="1.0" standalone="no"?><!DOCTYPE svg PUBLIC "-//W3C//DTD SVG 1.1//EN" "http://www.w3.org/Graphics/SVG/1.1/DTD/svg11.dtd"><svg t="1620893450544" class="icon" viewBox="0 0 1117 1024" version="1.1" xmlns="http://www.w3.org/2000/svg" p-id="3171" xmlns:xlink="http://www.w3.org/1999/xlink" width="17.453125" height="16"><defs><style type="text/css"></style></defs><path d="M0 860.904727h1092.701091v132.375273H0V860.904727z m846.848-381.114182L606.021818 706.001455a88.715636 88.715636 0 0 1-59.764363 22.434909 86.946909 86.946909 0 0 1-59.578182-22.621091L245.666909 479.976727a63.301818 63.301818 0 0 1-20.666182-45.335272c0-37.422545 36.026182-67.770182 80.430546-67.770182h1.861818v-0.372364h158.813091V200.238545c0-37.422545 35.933091-67.770182 80.337454-67.770181 44.311273 0 80.337455 30.254545 80.337455 67.770181v166.260364h155.927273v0.558546l4.654545-0.186182c44.404364 0 80.430545 30.347636 80.430546 67.770182a62.091636 62.091636 0 0 1-20.852364 45.242181zM417.792 0H674.909091v397.312H417.792V0z" p-id="3172"></path></svg>