<?xml version="1.0" standalone="no"?><!DOCTYPE svg PUBLIC "-//W3C//DTD SVG 1.1//EN" "http://www.w3.org/Graphics/SVG/1.1/DTD/svg11.dtd"><svg t="1621093624925" class="icon" viewBox="0 0 1024 1024" version="1.1" xmlns="http://www.w3.org/2000/svg" p-id="7044" xmlns:xlink="http://www.w3.org/1999/xlink" width="16" height="16"><defs><style type="text/css"></style></defs><path d="M795.776 311.232h-2.24a78.08 78.08 0 0 0-42.752 12.736c-11.328-33.088-40.128-56.896-77.248-56.896-16.384 0-32.064 4.736-44.992 12.736-11.328-33.024-40.192-56.832-77.312-56.832-14.464 0-27.968 3.648-39.808 9.984V147.84c0-46.336-35.072-83.84-81.728-83.84-46.656 0-84.48 37.568-84.48 83.84v325.568l-51.2-51.072c-33.024-32.768-91.392-28.16-119.488 0-28.16 28.096-46.528 84.608-6.336 124.8l235.904 234.368c4.864 4.8 10.24 8.896 15.872 12.288 43.008 35.072 92.288 55.872 196.48 55.872 238.08 0 260.16-128.448 260.16-286.912v-167.68c0-46.336-34.176-83.904-80.832-83.904M832 562.752c0 134.08-0.64 242.752-215.68 242.752-91.008 0-145.728-20.288-187.136-61.44L205.888 522.24c-19.712-19.776-14.72-44.992 1.408-61.184s45.824-16.768 61.44-1.28a290677.632 290677.632 0 0 0 120.96 120.256V156.736c0-21.888 17.92-39.68 40.064-39.68 22.08 0 37.184 17.792 37.184 39.68v269.248h0.448a22.144 22.144 0 0 0 21.76 26.496 22.144 22.144 0 0 0 21.824-26.496h0.448V315.648c0-21.952 16-39.68 38.08-39.68 0 0 39.168-0.576 39.168 39.68v145.664h0.448a22.144 22.144 0 0 0 21.76 26.496 22.144 22.144 0 0 0 21.76-26.496h0.512V359.68c0-21.888 15.68-39.68 37.76-39.68 0 0 40 2.496 40 39.68v128h0.448a22.144 22.144 0 0 0 21.76 26.496 21.696 21.696 0 0 0 21.76-22.016 25.728 25.728 0 0 0-0.448-4.48h0.448V400.448c0-21.888 16.448-39.68 38.528-39.68 0 0 38.784-1.6 38.784 39.68v162.432H832" p-id="7045"></path></svg>