<?xml version="1.0" standalone="no"?><!DOCTYPE svg PUBLIC "-//W3C//DTD SVG 1.1//EN" "http://www.w3.org/Graphics/SVG/1.1/DTD/svg11.dtd"><svg t="1620699470103" class="icon" viewBox="0 0 1024 1024" version="1.1" xmlns="http://www.w3.org/2000/svg" p-id="2060" xmlns:xlink="http://www.w3.org/1999/xlink" width="16" height="16"><defs><style type="text/css"></style></defs><path d="M397.084444 667.107556L324.750222 739.555556l93.752889 93.696a28.444444 28.444444 0 0 1-40.220444 40.220444L284.444444 779.747556l-122.140444 122.140444a28.444444 28.444444 0 1 1-40.220444-40.220444l122.140444-122.140445-93.696-93.639111a28.444444 28.444444 0 0 1 40.220444-40.220444L284.444444 699.306667l72.419556-72.419556A311.608889 311.608889 0 0 1 284.444444 426.666667c0-172.8 140.088889-312.888889 312.888889-312.888889s312.888889 140.088889 312.888889 312.888889-140.088889 312.888889-312.888889 312.888889c-76.145778 0-145.976889-27.221333-200.248889-72.448zM597.333333 682.666667a256 256 0 1 0 0-512 256 256 0 0 0 0 512z" p-id="2061" fill="#fc6bb8"></path></svg>