<?xml version="1.0" standalone="no"?><!DOCTYPE svg PUBLIC "-//W3C//DTD SVG 1.1//EN" "http://www.w3.org/Graphics/SVG/1.1/DTD/svg11.dtd"><svg t="1620699434916" class="icon" viewBox="0 0 1024 1024" version="1.1" xmlns="http://www.w3.org/2000/svg" p-id="1773" xmlns:xlink="http://www.w3.org/1999/xlink" width="16" height="16"><defs><style type="text/css"></style></defs><path d="M755.68 247.68H564.16a32 32 0 1 1 0-64h268.8a32 32 0 0 1 32 32v268.8a32 32 0 1 1-64 0V292.928l-185.28 185.28A256.032 256.032 0 0 1 232.416 816.224 256 256 0 0 1 570.432 432.96l185.28-185.28zM277.664 770.944a192 192 0 1 0 271.552-271.52 192 192 0 0 0-271.552 271.52z" p-id="1774" fill="#0ed7fa"></path></svg>