<?xml version="1.0" standalone="no"?><!DOCTYPE svg PUBLIC "-//W3C//DTD SVG 1.1//EN" "http://www.w3.org/Graphics/SVG/1.1/DTD/svg11.dtd"><svg t="1620893576761" class="icon" viewBox="0 0 1024 1024" version="1.1" xmlns="http://www.w3.org/2000/svg" p-id="9124" xmlns:xlink="http://www.w3.org/1999/xlink" width="16" height="16"><defs><style type="text/css"></style></defs><path d="M869.1 368c-18.9-47.3-46.9-89.6-83.1-125.9-36.2-36.2-78.6-64.2-125.9-83.1-44.9-17.9-92.2-27-140.9-27h-2.5c-49.5 0.3-97.9 10-143.7 28.9-47.4 19.5-90 47.9-126.6 84.5-36.6 36.6-65 79.2-84.5 126.6-18.8 45.8-28.5 94.1-28.9 143.7-0.3 49.6 8.8 97.8 27 143.5 19 47.2 47 89.5 83.2 125.8 36.2 36.2 78.6 64.2 125.9 83.1 44.9 17.9 92.2 27 140.9 27h2.5c49.5-0.3 97.9-10 143.7-28.9 47.4-19.5 90-47.9 126.6-84.5 36.6-36.6 65-79.2 84.5-126.6 18.8-45.8 28.5-94.1 28.9-143.7 0.3-49.5-8.8-97.7-27.1-143.4z m-576.7-76.7c62.8-62.8 145-94.2 226.8-94.2 70 0 139.8 23.1 196.7 69.2L267.4 714.9c-100.1-123.5-91.5-307.1 25-423.6z m444.5 444.5c-116.5 116.5-300.1 125.1-423.6 25l448.6-448.6c100.1 123.5 91.4 307.1-25 423.6z" p-id="9125"></path></svg>