<?xml version="1.0" standalone="no"?><!DOCTYPE svg PUBLIC "-//W3C//DTD SVG 1.1//EN" "http://www.w3.org/Graphics/SVG/1.1/DTD/svg11.dtd"><svg t="1620396075114" class="icon" viewBox="0 0 1024 1024" version="1.1" xmlns="http://www.w3.org/2000/svg" p-id="13287" xmlns:xlink="http://www.w3.org/1999/xlink" width="16" height="16"><defs><style type="text/css"></style></defs><path d="M131.3 96.9v827.6c0 17.7 14.4 32.1 32.1 32.1s32.1-14.4 32.1-32.1V96.9c0-17.7-14.4-32.1-32.1-32.1s-32.1 14.3-32.1 32.1z m647.6 41.4L373.5 470.2c-27.4 22.5-27.5 59 0 81.5l405.3 331.9c27.4 22.5 49.8 12 49.8-23.4V161.8c0-35.8-22.2-46-49.7-23.5z m-40.7-49.6c69.3-56.7 154.6-16.9 154.6 73.1v698.5c0 89.7-85.3 129.8-154.6 73.1l-405.3-332c-58.8-48.2-58.8-132.7 0-180.8L738.2 88.7z" p-id="13288" fill="#ffffff"></path></svg>