<?xml version="1.0" standalone="no"?><!DOCTYPE svg PUBLIC "-//W3C//DTD SVG 1.1//EN" "http://www.w3.org/Graphics/SVG/1.1/DTD/svg11.dtd"><svg t="1619958000549" class="icon" viewBox="0 0 1434 1024" version="1.1" xmlns="http://www.w3.org/2000/svg" p-id="3701" xmlns:xlink="http://www.w3.org/1999/xlink" width="22.40625" height="16"><defs><style type="text/css"></style></defs><path d="M1406.176597 441.685333a97.621333 97.621333 0 0 0-68.266666-27.989333H335.072597l238.933334-238.933333a97.621333 97.621333 0 0 0 29.354666-68.266667 94.890667 94.890667 0 0 0-29.354666-68.266667 96.938667 96.938667 0 0 0-136.533334 0l-409.6 409.6A79.189333 79.189333 0 0 0 6.027264 477.866667a99.669333 99.669333 0 0 0 0 68.266666l4.096 12.288 4.778667 4.778667a103.082667 103.082667 0 0 0 12.970666 17.749333l409.6 409.6a94.890667 94.890667 0 0 0 68.266667 29.354667 97.621333 97.621333 0 0 0 68.266667-29.354667 94.890667 94.890667 0 0 0 29.354666-68.266666 97.621333 97.621333 0 0 0-29.354666-68.266667L335.072597 610.304h1000.789334a97.621333 97.621333 0 0 0 68.266666-27.989333 102.4 102.4 0 0 0 0-140.629334z" p-id="3702" fill="#ffffff"></path></svg>