<?xml version="1.0" standalone="no"?><!DOCTYPE svg PUBLIC "-//W3C//DTD SVG 1.1//EN" "http://www.w3.org/Graphics/SVG/1.1/DTD/svg11.dtd"><svg t="1620477771101" class="icon" viewBox="0 0 1024 1024" version="1.1" xmlns="http://www.w3.org/2000/svg" p-id="4573" xmlns:xlink="http://www.w3.org/1999/xlink" width="16" height="16"><defs><style type="text/css"></style></defs><path d="M914.91657273 410.90076786L644.23310905 410.90076786c104.88668387-387.37260658-72.26779421-407.15747214-72.2677942-407.15747215-75.08538823 0-59.51992718 59.37206158-65.19819378 69.26973384 0 189.4424485-201.21579975 337.88773831-201.21579975 337.88773831l0 537.22669397c0 53.02898233 72.26779421 72.12807851 100.61721372 72.12807851l406.70106852 0c38.27619954 0 69.44554325-100.37969806 69.44554325-100.37969807 100.61837881-342.13625173 100.61837881-443.93522517 100.61837881-443.93522517C982.93468957 405.25277298 914.91657273 410.90076786 914.91657273 410.90076786L914.91657273 410.90076786 914.91657273 410.90076786zM914.91657273 410.90076786" fill="#f64b1a" p-id="4574"></path><path d="M194.47058774 411.07890517L32.38674432 411.07890517c-33.47348253 0-33.98926563 32.8773632-33.98926563 32.8773632l33.47348252 541.8128532c0 34.48525483 34.54463431 34.48525483 34.54463431 34.48525482L206.70034262 1020.25437639c29.22497024 0 28.96649671-22.81203257 28.96649671-22.81203257L235.66683933 452.16571278C235.66683933 410.55264313 194.47058774 411.07890517 194.47058774 411.07890517L194.47058774 411.07890517 194.47058774 411.07890517zM194.47058774 411.07890517" fill="#f64b1a" p-id="4575"></path></svg>