<?xml version="1.0" standalone="no"?><!DOCTYPE svg PUBLIC "-//W3C//DTD SVG 1.1//EN" "http://www.w3.org/Graphics/SVG/1.1/DTD/svg11.dtd"><svg t="1620893536171" class="icon" viewBox="0 0 1024 1024" version="1.1" xmlns="http://www.w3.org/2000/svg" p-id="7338" xmlns:xlink="http://www.w3.org/1999/xlink" width="16" height="16"><defs><style type="text/css"></style></defs><path d="M849.027282 606.628103V337.027282C849.027282 151.657026 697.370256 0 512 0 326.629744 0 174.972718 151.657026 174.972718 337.027282v269.600821L40.172308 876.255179h306.674871c16.856615 77.508923 84.283077 134.80041 165.152821 134.800411s148.296205-57.291487 165.152821-134.800411h306.674871l-134.80041-269.627076zM512 943.655385c-43.821949 0-80.869744-26.965333-94.365538-67.400206h188.731076c-13.469538 40.434872-50.54359 67.400205-94.365538 67.400206zM141.259487 808.854974l101.113436-202.226871V337.027282C242.372923 188.731077 363.703795 67.400205 512 67.400205s269.627077 121.330872 269.627077 269.627077v269.600821l101.087179 202.226871H141.285744z" p-id="7339"></path></svg>