<?xml version="1.0" standalone="no"?><!DOCTYPE svg PUBLIC "-//W3C//DTD SVG 1.1//EN" "http://www.w3.org/Graphics/SVG/1.1/DTD/svg11.dtd"><svg t="1620398174706" class="icon" viewBox="0 0 1331 1024" version="1.1" xmlns="http://www.w3.org/2000/svg" p-id="2186" xmlns:xlink="http://www.w3.org/1999/xlink" width="20.796875" height="16"><defs><style type="text/css"></style></defs><path d="M0 0m46.029795 0l92.059591 0q46.029795 0 46.029795 46.029795l0 92.059591q0 46.029795-46.029795 46.029795l-92.059591 0q-46.029795 0-46.029795-46.029795l0-92.059591q0-46.029795 46.029795-46.029795Z" fill="#ffffff" p-id="2187"></path><path d="M276.178772 0m46.029795 0l828.536316 0q46.029795 0 46.029795 46.029795l0 92.059591q0 46.029795-46.029795 46.029795l-828.536316 0q-46.029795 0-46.029795-46.029795l0-92.059591q0-46.029795 46.029795-46.029795Z" fill="#ffffff" p-id="2188"></path><path d="M0 368.238362m46.029795 0l92.059591 0q46.029795 0 46.029795 46.029796l0 92.05959q0 46.029795-46.029795 46.029796l-92.059591 0q-46.029795 0-46.029795-46.029796l0-92.05959q0-46.029795 46.029795-46.029796Z" fill="#ffffff" p-id="2189"></path><path d="M276.178772 368.238362m46.029795 0l828.536316 0q46.029795 0 46.029795 46.029796l0 92.05959q0 46.029795-46.029795 46.029796l-828.536316 0q-46.029795 0-46.029795-46.029796l0-92.05959q0-46.029795 46.029795-46.029796Z" fill="#ffffff" p-id="2190"></path><path d="M0 736.476725m46.029795 0l92.059591 0q46.029795 0 46.029795 46.029795l0 92.059591q0 46.029795-46.029795 46.029795l-92.059591 0q-46.029795 0-46.029795-46.029795l0-92.059591q0-46.029795 46.029795-46.029795Z" fill="#ffffff" p-id="2191"></path><path d="M276.178772 736.476725m46.029795 0l828.536316 0q46.029795 0 46.029795 46.029795l0 92.059591q0 46.029795-46.029795 46.029795l-828.536316 0q-46.029795 0-46.029795-46.029795l0-92.059591q0-46.029795 46.029795-46.029795Z" fill="#ffffff" p-id="2192"></path></svg>