<?xml version="1.0" standalone="no"?><!DOCTYPE svg PUBLIC "-//W3C//DTD SVG 1.1//EN" "http://www.w3.org/Graphics/SVG/1.1/DTD/svg11.dtd"><svg t="1619613052372" class="icon" viewBox="0 0 1024 1024" version="1.1" xmlns="http://www.w3.org/2000/svg" p-id="10928" width="16" height="16" xmlns:xlink="http://www.w3.org/1999/xlink"><defs><style type="text/css"></style></defs><path d="M284.89955555 3.072c13.42577778 0 25.71377778 5.57511111 36.75022223 16.49777778 150.86933333 150.07288889 301.73866668 300.25955555 452.608 450.56l7.50933333 7.50933333c10.46755555 10.46755555 16.384 26.16888889 16.15644444 43.23555556-0.11377778 16.27022222-6.03022222 31.1751111-16.04266666 40.84622222-152.80355555 147.456-305.37955555 295.13955555-458.06933334 442.59555556-11.03644445 10.69511111-23.43822222 16.15644445-36.864 16.15644444-22.86933333 0-46.30755554-16.95288889-55.7511111-40.27733334-5.00622222-12.51555555-10.01244445-36.97777777 13.65333333-59.8471111l160.88177777-155.53422223c82.26133332-79.53066667 164.52266667-158.94755555 246.67022223-238.47822222l7.62311111-7.39555555L492.65777778 352.256c-83.28533333-82.944-166.57066667-165.77422221-249.856-248.60444445-17.06666667-17.06666667-21.84533333-39.13955555-12.85688889-60.75733333 9.67111111-23.43822222 32.31288889-39.82222222 54.95466666-39.82222222z m0 0" p-id="10929"></path></svg>