<?xml version="1.0" standalone="no"?><!DOCTYPE svg PUBLIC "-//W3C//DTD SVG 1.1//EN" "http://www.w3.org/Graphics/SVG/1.1/DTD/svg11.dtd"><svg class="icon" width="16px" height="16.00px" viewBox="0 0 1024 1024" version="1.1" xmlns="http://www.w3.org/2000/svg"><path fill="#ffffff" d="M262.762081 891.423326c-14.943596 0-32.380629-4.983226-44.838086-12.457456C188.03437 861.528836 173.087125 834.130217 173.087125 799.25615v-572.931096c0-32.384278 17.437033-62.273903 44.83687-79.710936 29.89449-17.441899 62.273903-17.441899 89.67982 0l495.707515 286.464332c29.889625 17.437033 44.836869 44.838086 44.83687 79.712152 0 32.384278-17.437033 62.273903-44.83687 79.710936L310.093604 878.96587c-14.947245 9.964019-29.895706 12.457456-47.331523 12.457456z m2.493437-694.991545c-7.473014 0-12.457456 2.494654-17.437033 4.984442-4.983226 2.488572-14.947245 9.962803-14.947245 24.910048v572.931095c0 14.947245 9.964019 22.421475 14.947245 24.910048 4.979577 2.488572 17.437033 7.474231 29.89084 0l495.707516-286.465548c12.457456-7.474231 14.947245-19.932903 14.947245-24.910048 0-4.984442-2.489788-17.437033-14.947245-24.911264l-495.707516-286.464331c-4.979577-2.491005-9.964019-4.984442-12.453807-4.984442z m0 0"  /></svg>