<?xml version="1.0" standalone="no"?><!DOCTYPE svg PUBLIC "-//W3C//DTD SVG 1.1//EN" "http://www.w3.org/Graphics/SVG/1.1/DTD/svg11.dtd"><svg t="1620140110191" class="icon" viewBox="0 0 1024 1024" version="1.1" xmlns="http://www.w3.org/2000/svg" p-id="7118" xmlns:xlink="http://www.w3.org/1999/xlink" width="16" height="16"><defs><style type="text/css"></style></defs><path d="M512 69.818182c244.363636 0 442.181818 197.818182 442.181818 442.181818s-197.818182 442.181818-442.181818 442.181818S69.818182 756.363636 69.818182 512 267.636364 69.818182 512 69.818182m0-69.818182C228.072727 0 0 228.072727 0 512s228.072727 512 512 512 512-228.072727 512-512S795.927273 0 512 0z" p-id="7119" fill="#ffffff"></path><path d="M679.563636 537.6l-221.090909 176.872727c-20.945455 16.290909-53.527273 2.327273-53.527272-25.6V335.127273c0-27.927273 30.254545-41.890909 53.527272-25.6l221.090909 176.872727c16.290909 13.963636 16.290909 37.236364 0 51.2z" p-id="7120" fill="#ffffff"></path></svg>