<?xml version="1.0" standalone="no"?><!DOCTYPE svg PUBLIC "-//W3C//DTD SVG 1.1//EN" "http://www.w3.org/Graphics/SVG/1.1/DTD/svg11.dtd"><svg t="1620114872486" class="icon" viewBox="0 0 1024 1024" version="1.1" xmlns="http://www.w3.org/2000/svg" p-id="3409" xmlns:xlink="http://www.w3.org/1999/xlink" width="16" height="16"><defs><style type="text/css"></style></defs><path d="M512 0C229.230933 0 0 229.230933 0 512s229.230933 512 512 512 512-229.230933 512-512S794.769067 0 512 0z m0 972.8C257.5104 972.8 51.2 766.4896 51.2 512S257.5104 51.2 512 51.2s460.8 206.3104 460.8 460.8-206.3104 460.8-460.8 460.8z m232.413867-497.083733c-79.675733-54.2208-224.1536-135.364267-306.432-185.642667-33.723733-21.2736-62.08-12.731733-64.810667 24.832-1.9712 100.625067 0 294.766933 0 397.124267 1.7152 38.144 35.336533 43.170133 64.512 27.861333l306.005333-185.3952c-0.5376-0.324267 62.711467-35.114667 0.725334-78.779733z" p-id="3410"></path></svg>