<?xml version="1.0" standalone="no"?><!DOCTYPE svg PUBLIC "-//W3C//DTD SVG 1.1//EN" "http://www.w3.org/Graphics/SVG/1.1/DTD/svg11.dtd"><svg t="1619964834213" class="icon" viewBox="0 0 1024 1024" version="1.1" xmlns="http://www.w3.org/2000/svg" p-id="8076" xmlns:xlink="http://www.w3.org/1999/xlink" width="16" height="16"><defs><style type="text/css"></style></defs><path d="M853.578 661.715c-65.68 0-119.381 35.158-144.39 89.736L391.713 616.41c18.518-28.693 28.692-63.85 28.692-101.764 0-15.711-1.854-31.448-5.563-46.258l202.703-157.269c26.864 20.348 61.12 32.376 99.059 32.376 91.641 0 160.128-68.46 160.128-159.097 0-90.663-68.512-159.124-160.128-159.124-91.641 0-159.2 68.46-159.2 159.124 0 23.129 4.636 44.404 12.028 62.897L382.44 390.68c-37.012-55.505-98.106-94.372-167.52-94.372A204.97 204.97 0 0 0 9.438 501.691a204.97 204.97 0 0 0 205.485 205.356c42.575 0 82.369-11.076 114.77-31.423l364.711 155.388c4.636 86.027 71.268 149.851 159.175 149.851 91.667 0 159.226-68.435 159.226-159.097 0-90.663-68.512-160.05-159.2-160.05z" fill="#333333" p-id="8077"></path></svg>