<?xml version="1.0" standalone="no"?><!DOCTYPE svg PUBLIC "-//W3C//DTD SVG 1.1//EN" "http://www.w3.org/Graphics/SVG/1.1/DTD/svg11.dtd"><svg t="1620893472427" class="icon" viewBox="0 0 1024 1024" version="1.1" xmlns="http://www.w3.org/2000/svg" p-id="4068" xmlns:xlink="http://www.w3.org/1999/xlink" width="16" height="16"><defs><style type="text/css"></style></defs><path d="M513.05634323 536.21304383c-131.33867488 0-238.19504197-107.06349322-238.19504198-238.65071945 0-131.60793885 106.85636709-238.67143205 238.19504198-238.67143206s238.19504197 107.06349322 238.19504198 238.67143206c0 131.58722623-106.85636709 238.65071945-238.19504198 238.65071945z m0-435.91763942c-108.49266347 0-196.76981728 88.48427995-196.76981728 197.24620736s88.27715381 197.22549475 196.76981728 197.22549476 196.76981728-88.46356733 196.76981728-197.22549476-88.27715381-197.24620737-196.76981728-197.24620736z" p-id="4069"></path><path d="M795.14141076 984.49611283h-110.54321209v-41.42522469h110.54321209a101.90605275 101.90605275 0 0 0 87.01368447-47.32831921 104.32942838 104.32942838 0 0 0 7.51867828-99.89692935c-66.63247392-148.24016656-213.85772247-244.01528605-375.10540958-244.01528603h-6.44162244c-161.26839973 0-308.49364827 95.77511949-375.10540958 244.01528603a104.45370405 104.45370405 0 0 0 7.49796567 99.89692935 101.90605275 101.90605275 0 0 0 87.03439709 47.32831921H335.94279506v41.42522469h-108.38910039a144.51189634 144.51189634 0 0 1-121.81087322-66.23893428 145.67180263 145.67180263 0 0 1-10.50129446-139.39588109c73.28122249-163.07039699 235.33670147-268.45616862 412.8852145-268.45616861h6.44162244c177.52780042 0 339.60399202 105.38577162 412.90592711 268.45616861a145.71322785 145.71322785 0 0 1-10.52200707 139.39588109 144.57403417 144.57403417 0 0 1-121.81087321 66.23893428z" p-id="4070"></path><path d="M491.28738765 822.68918518h41.4252247v165.70089877h-41.4252247z" p-id="4071"></path><path d="M527.65873493 851.00332626h-32.60165183a66.63247392 66.63247392 0 0 1-66.54962346-66.54962347V710.42682627a66.63247392 66.63247392 0 0 1 66.54962346-66.54962346h32.60165183a66.63247392 66.63247392 0 0 1 66.54962347 66.54962346v74.02687652a66.63247392 66.63247392 0 0 1-66.54962347 66.54962347z m-32.60165183-165.70089876c-13.85673765 0-25.12439877 11.26766112-25.12439878 25.12439877v74.02687652c0 13.85673765 11.26766112 25.12439877 25.12439878 25.12439878h32.60165183c13.85673765 0 25.12439877-11.26766112 25.12439878-25.12439878V710.42682627c0-13.85673765-11.26766112-25.12439877-25.12439878-25.12439877h-32.60165183z" p-id="4072"></path></svg>