<?xml version="1.0" standalone="no"?><!DOCTYPE svg PUBLIC "-//W3C//DTD SVG 1.1//EN" "http://www.w3.org/Graphics/SVG/1.1/DTD/svg11.dtd"><svg t="1620397476294" class="icon" viewBox="0 0 1024 1024" version="1.1" xmlns="http://www.w3.org/2000/svg" p-id="13184" xmlns:xlink="http://www.w3.org/1999/xlink" width="16" height="16"><defs><style type="text/css"></style></defs><path d="M960 345.6c0-147.2-121.6-268.8-268.8-268.8-70.4 0-134.4 25.6-185.6 70.4l377.6 377.6C934.4 480 960 416 960 345.6zM473.6 192c-32 38.4-51.2 96-51.2 153.6 0 25.6 6.4 51.2 12.8 70.4l185.6 185.6c25.6 6.4 44.8 12.8 70.4 12.8 57.6 0 108.8-19.2 153.6-44.8L473.6 192zM134.4 742.4l-12.8 12.8c-12.8 12.8-19.2 32-19.2 44.8v25.6c0 19.2 6.4 32 12.8 44.8v6.4L64 928l32 32 44.8-44.8c19.2 12.8 38.4 19.2 64 19.2 12.8 0 25.6 0 32-6.4 12.8-6.4 25.6-12.8 32-19.2 6.4 0 6.4-6.4 12.8-6.4l294.4-256-172.8-185.6-268.8 281.6zM896 608v-12.8h-12.8V608c0 51.2-25.6 76.8-64 76.8h-6.4V704h6.4c32 0 64 25.6 64 76.8H896c0-51.2 25.6-76.8 64-76.8h6.4v-12.8H960c-38.4 0-64-32-64-83.2zM307.2 140.8c12.8 12.8 6.4 38.4 6.4 38.4h6.4c6.4-32 25.6-51.2 44.8-51.2v-6.4c-25.6 0-44.8-12.8-44.8-51.2V64h-6.4v6.4c0 38.4-19.2 51.2-44.8 51.2v6.4s19.2 0 38.4 12.8z m-57.6 262.4h12.8c0-38.4 12.8-76.8 70.4-76.8v-12.8c-51.2 0-70.4-32-70.4-76.8V224h-12.8v12.8c0 51.2-25.6 76.8-70.4 76.8v12.8c64 0 70.4 25.6 70.4 76.8z" p-id="13185" fill="#ffffff"></path></svg>