<?xml version="1.0" standalone="no"?><!DOCTYPE svg PUBLIC "-//W3C//DTD SVG 1.1//EN" "http://www.w3.org/Graphics/SVG/1.1/DTD/svg11.dtd"><svg t="1620013914029" class="icon" viewBox="0 0 1024 1024" version="1.1" xmlns="http://www.w3.org/2000/svg" p-id="1765" xmlns:xlink="http://www.w3.org/1999/xlink" width="16" height="16"><defs><style type="text/css"></style></defs><path d="M512 737.28c62.976 0 114.176 51.2 114.176 114.176s-51.2 114.176-114.176 114.176-114.176-51.2-114.176-114.176S449.024 737.28 512 737.28z m-114.176-225.28c0 62.976 51.2 114.176 114.176 114.176s114.176-51.2 114.176-114.176-51.2-114.176-114.176-114.176-114.176 51.2-114.176 114.176z m0-339.456C397.824 235.52 449.024 286.72 512 286.72s114.176-51.2 114.176-114.176-51.2-114.176-114.176-114.176-114.176 51.2-114.176 114.176z" p-id="1766" fill="#ffffff"></path></svg>