<?xml version="1.0" standalone="no"?><!DOCTYPE svg PUBLIC "-//W3C//DTD SVG 1.1//EN" "http://www.w3.org/Graphics/SVG/1.1/DTD/svg11.dtd"><svg t="1620114851030" class="icon" viewBox="0 0 1024 1024" version="1.1" xmlns="http://www.w3.org/2000/svg" p-id="2049" xmlns:xlink="http://www.w3.org/1999/xlink" width="16" height="16"><defs><style type="text/css"></style></defs><path d="M512 8.858C234.496 8.858 8.858 234.496 8.858 512S234.548 1015.142 512 1015.142c277.504 0 503.142-225.69 503.142-503.142C1015.142 234.496 789.504 8.858 512 8.858z m0 937.984A434.79 434.79 0 0 1 77.158 512 434.79 434.79 0 0 1 512 77.158 434.79 434.79 0 0 1 946.842 512 434.79 434.79 0 0 1 512 946.842zM408.474 304.947a45.978 45.978 0 0 0-45.568 45.568v320.922c0 24.832 20.736 45.568 45.568 45.568s45.568-20.736 45.568-45.568V350.515a45.978 45.978 0 0 0-45.568-45.568z m207.052 0a45.978 45.978 0 0 0-45.568 45.568v320.922c0 24.832 20.736 45.568 45.568 45.568s45.568-20.736 45.568-45.568V350.515a45.978 45.978 0 0 0-45.568-45.568z" p-id="2050"></path></svg>