<?xml version="1.0" standalone="no"?><!DOCTYPE svg PUBLIC "-//W3C//DTD SVG 1.1//EN" "http://www.w3.org/Graphics/SVG/1.1/DTD/svg11.dtd"><svg t="1619964795609" class="icon" viewBox="0 0 1024 1024" version="1.1" xmlns="http://www.w3.org/2000/svg" p-id="6579" xmlns:xlink="http://www.w3.org/1999/xlink" width="16" height="16"><defs><style type="text/css"></style></defs><path d="M733.184 41.472c-87.552 0-168.448 44.032-222.208 115.712C458.24 84.992 376.832 41.472 289.28 41.472 132.096 41.472 4.608 181.248 4.608 353.28c0 102.4 45.568 174.592 82.432 232.448 106.496 168.448 376.32 376.832 388.096 385.536 21.504 17.408 51.712 17.408 72.704 0 11.776-8.704 280.576-217.6 388.096-385.536C972.8 527.872 1018.368 455.68 1018.368 353.28c0-172.032-128-311.808-285.184-311.808z m138.24 544.256c-101.888 142.336-316.928 305.152-327.68 313.344-9.728 8.192-22.016 11.776-33.28 11.776-11.776 0-23.552-3.584-33.28-11.776-10.24-8.192-221.184-172.032-327.68-318.976C115.712 526.336 61.44 459.776 61.44 366.08 61.952 208.384 150.016 97.28 294.4 97.28c79.872 0 167.424 76.8 216.064 143.36 49.664-66.56 136.704-143.36 216.576-143.36 144.896 0 238.592 111.104 238.592 268.8 0.512 94.208-59.904 166.912-94.208 219.648z" p-id="6580"></path></svg>