<?xml version="1.0" standalone="no"?><!DOCTYPE svg PUBLIC "-//W3C//DTD SVG 1.1//EN" "http://www.w3.org/Graphics/SVG/1.1/DTD/svg11.dtd"><svg t="1620893518073" class="icon" viewBox="0 0 1024 1024" version="1.1" xmlns="http://www.w3.org/2000/svg" p-id="6520" xmlns:xlink="http://www.w3.org/1999/xlink" width="16" height="16"><defs><style type="text/css"></style></defs><path d="M863.085714 0C950.857143 0 1024 73.142857 1024 160.914286v702.171428c0 43.885714-14.628571 87.771429-43.885714 117.028572-29.257143 29.257143-73.142857 43.885714-117.028572 43.885714H160.914286C73.142857 1024 0 950.857143 0 863.085714V160.914286C0 73.142857 73.142857 0 160.914286 0h702.171428z m0 80.457143H160.914286c-43.885714 0-80.457143 36.571429-80.457143 73.142857v702.171429c0 43.885714 36.571429 80.457143 73.142857 80.457142h702.171429c43.885714 0 80.457143-36.571429 80.457142-73.142857V160.914286c7.314286-43.885714-29.257143-80.457143-73.142857-80.457143zM329.142857 292.571429c0-29.257143 29.257143-43.885714 58.514286-29.257143l365.714286 219.428571c21.942857 14.628571 21.942857 51.2 0 65.828572l-365.714286 219.428571c-21.942857 14.628571-58.514286 0-58.514286-29.257143V292.571429z m73.142857 65.828571v307.2L658.285714 512 402.285714 358.4z" p-id="6521"></path></svg>