<?xml version="1.0" standalone="no"?><!DOCTYPE svg PUBLIC "-//W3C//DTD SVG 1.1//EN" "http://www.w3.org/Graphics/SVG/1.1/DTD/svg11.dtd"><svg t="1621497963663" class="icon" viewBox="0 0 1024 1024" version="1.1" xmlns="http://www.w3.org/2000/svg" p-id="1881" xmlns:xlink="http://www.w3.org/1999/xlink" width="16" height="16"><defs><style type="text/css"></style></defs><path d="M839.5 831.7c-11.3 11.5-29.9 11.9-41.7 0.9-0.6-0.6-1.2-1.1-1.7-1.8-11.7-12.9-11.4-32.4 0.8-44.9 71.7-71.4 113-169.6 113-274.6 0-104.4-40.7-202-111.7-273.4-12.2-12.5-12.4-32.1-0.6-44.9 10.9-11.8 29.5-12.9 41.6-2.3 0.6 0.5 1.2 1.1 1.8 1.7 82.8 83.2 130.4 197.1 130.4 318.9-0.2 122.5-48.3 237.1-131.9 320.4zM717.4 682.1c-11.5 11.8-30.6 12.2-42.7 1-0.2-0.2-0.5-0.4-0.7-0.7-12.1-11.9-12.2-31-0.4-43.1 33.9-34.5 52.8-80.4 52.6-128.2 0.2-47.1-18.1-92.4-51.2-126.7-11.7-12.3-11.3-31.4 0.9-43.1 11.9-11.4 31-11.3 42.7 0.2 0.2 0.2 0.4 0.4 0.6 0.7 44 45.8 68.4 106.2 68.2 169 0.2 64.7-25.3 125.6-70 170.9zM508.9 950.4L293.5 813.6h-180c-33.8 0-61.3-26.7-61.3-59.7V290.6c0-33 27.4-59.7 61.3-59.7h180l212.2-155c27.1-19.8 65.5-14.4 85.8 12 7.9 10.3 12.2 22.9 12.2 35.8v776.7c0 33-27.4 59.7-61.2 59.7-12 0-23.6-3.4-33.6-9.7z" fill="#ffffff" p-id="1882"></path></svg>